Libre-Plantin-Regular.ufo
<glyph name="period" format="1">
  <advance width="278"/>
  <unicode hex="002E"/>
  <outline>
    <contour>
      <point x="139" y="118" type="curve" smooth="yes"/>
      <point x="104" y="118"/>
      <point x="75" y="90"/>
      <point x="75" y="54" type="curve" smooth="yes"/>
      <point x="75" y="18"/>
      <point x="104" y="-9"/>
      <point x="139" y="-9" type="curve" smooth="yes"/>
      <point x="174" y="-9"/>
      <point x="202" y="19"/>
      <point x="202" y="54" type="curve" smooth="yes"/>
      <point x="202" y="90"/>
      <point x="174" y="118"/>
    </contour>
  </outline>
</glyph>
<glyph name="B" format="1">
  <advance width="600"/>
  <unicode hex="0042"/>
  <outline>
    <contour>
      <point x="207" y="346" type="line"/>
      <point x="207" y="586" type="line" smooth="yes"/>
      <point x="207" y="618"/>
      <point x="218" y="635"/>
      <point x="241" y="635" type="curve" smooth="yes"/>
      <point x="286" y="635" type="line" smooth="yes"/>
      <point x="357" y="635"/>
      <point x="454" y="621"/>
      <point x="454" y="502" type="curve" smooth="yes"/>
      <point x="454" y="392"/>
      <point x="407" y="346"/>
      <point x="326" y="346" type="curve" smooth="yes"/>
    </contour>
    <contour>
      <point x="654" y="24"/>
      <point x="620" y="49"/>
      <point x="569" y="123" type="curve" smooth="yes"/>
      <point x="427" y="330" type="line"/>
      <point x="495" y="360"/>
      <point x="558" y="414"/>
      <point x="558" y="502" type="curve" smooth="yes"/>
      <point x="558" y="650"/>
      <point x="463" y="672"/>
      <point x="337" y="672" type="curve"/>
      <point x="21" y="672" type="line"/>
      <point x="21" y="648" type="line"/>
      <point x="83" y="632" type="line" smooth="yes"/>
      <point x="105" y="626"/>
      <point x="117" y="614"/>
      <point x="117" y="582" type="curve" smooth="yes"/>
      <point x="117" y="90" type="line" smooth="yes"/>
      <point x="117" y="58"/>
      <point x="105" y="46"/>
      <point x="83" y="40" type="curve" smooth="yes"/>
      <point x="21" y="24" type="line"/>
      <point x="21" y="0" type="line"/>
      <point x="303" y="0" type="line"/>
      <point x="303" y="24" type="line"/>
      <point x="241" y="40" type="line" smooth="yes"/>
      <point x="219" y="46"/>
      <point x="207" y="58"/>
      <point x="207" y="90" type="curve" smooth="yes"/>
      <point x="207" y="300" type="line"/>
      <point x="330" y="300" type="line"/>
      <point x="392" y="196" type="line"/>
      <point x="430" y="137"/>
      <point x="450" y="87"/>
      <point x="499" y="36" type="curve" smooth="yes"/>
      <point x="559" y="-27"/>
      <point x="658" y="-12"/>
      <point x="690" y="0" type="curve"/>
      <point x="690" y="24" type="line"/>
    </contour>
  </outline>
</glyph>
<glyph name="H" format="1">
  <advance width="813"/>
  <unicode hex="0048"/>
  <outline>
    <contour>
      <point x="791" y="648" type="line"/>
      <point x="791" y="672" type="line"/>
      <point x="499" y="672" type="line"/>
      <point x="499" y="648" type="line"/>
      <point x="561" y="632" type="line" smooth="yes"/>
      <point x="583" y="626"/>
      <point x="595" y="614"/>
      <point x="595" y="582" type="curve" smooth="yes"/>
      <point x="595" y="369" type="line"/>
      <point x="239" y="369" type="line"/>
      <point x="239" y="582" type="line" smooth="yes"/>
      <point x="239" y="614"/>
      <point x="251" y="626"/>
      <point x="273" y="632" type="curve" smooth="yes"/>
      <point x="335" y="648" type="line"/>
      <point x="335" y="672" type="line"/>
      <point x="43" y="672" type="line"/>
      <point x="43" y="648" type="line"/>
      <point x="105" y="632" type="line" smooth="yes"/>
      <point x="127" y="626"/>
      <point x="139" y="614"/>
      <point x="139" y="582" type="curve" smooth="yes"/>
      <point x="139" y="90" type="line" smooth="yes"/>
      <point x="139" y="58"/>
      <point x="127" y="46"/>
      <point x="105" y="40" type="curve" smooth="yes"/>
      <point x="43" y="24" type="line"/>
      <point x="43" y="0" type="line"/>
      <point x="335" y="0" type="line"/>
      <point x="335" y="24" type="line"/>
      <point x="273" y="40" type="line" smooth="yes"/>
      <point x="251" y="46"/>
      <point x="239" y="58"/>
      <point x="239" y="90" type="curve" smooth="yes"/>
      <point x="239" y="323" type="line"/>
      <point x="595" y="323" type="line"/>
      <point x="595" y="90" type="line" smooth="yes"/>
      <point x="595" y="58"/>
      <point x="583" y="46"/>
      <point x="561" y="40" type="curve" smooth="yes"/>
      <point x="499" y="24" type="line"/>
      <point x="499" y="0" type="line"/>
      <point x="791" y="0" type="line"/>
      <point x="791" y="24" type="line"/>
      <point x="729" y="40" type="line" smooth="yes"/>
      <point x="707" y="46"/>
      <point x="695" y="58"/>
      <point x="695" y="90" type="curve" smooth="yes"/>
      <point x="695" y="582" type="line" smooth="yes"/>
      <point x="695" y="614"/>
      <point x="707" y="626"/>
      <point x="729" y="632" type="curve" smooth="yes"/>
    </contour>
  </outline>
</glyph>
<glyph name="I" format="1">
  <advance width="346"/>
  <unicode hex="0049"/>
  <outline>
    <contour>
      <point x="219" y="582" type="line" smooth="yes"/>
      <point x="219" y="614"/>
      <point x="231" y="626"/>
      <point x="253" y="632" type="curve" smooth="yes"/>
      <point x="315" y="648" type="line"/>
      <point x="315" y="672" type="line"/>
      <point x="31" y="672" type="line"/>
      <point x="31" y="648" type="line"/>
      <point x="93" y="632" type="line" smooth="yes"/>
      <point x="115" y="626"/>
      <point x="127" y="614"/>
      <point x="127" y="582" type="curve" smooth="yes"/>
      <point x="127" y="90" type="line" smooth="yes"/>
      <point x="127" y="58"/>
      <point x="115" y="46"/>
      <point x="93" y="40" type="curve" smooth="yes"/>
      <point x="31" y="24" type="line"/>
      <point x="31" y="0" type="line"/>
      <point x="315" y="0" type="line"/>
      <point x="315" y="24" type="line"/>
      <point x="253" y="40" type="line" smooth="yes"/>
      <point x="231" y="46"/>
      <point x="219" y="58"/>
      <point x="219" y="90" type="curve" smooth="yes"/>
    </contour>
  </outline>
</glyph>
<glyph name="K" format="1">
  <advance width="600"/>
  <unicode hex="004B"/>
  <outline>
    <contour>
      <point x="194" y="582" type="line"/>
      <point x="194" y="614"/>
      <point x="206" y="626"/>
      <point x="228" y="632" type="curve" smooth="yes"/>
      <point x="290" y="648" type="line"/>
      <point x="290" y="672" type="line"/>
      <point x="8" y="672" type="line"/>
      <point x="8" y="648" type="line"/>
      <point x="70" y="632" type="line" smooth="yes"/>
      <point x="92" y="626"/>
      <point x="104" y="614"/>
      <point x="104" y="582" type="curve" smooth="yes"/>
      <point x="104" y="90" type="line" smooth="yes"/>
      <point x="104" y="58"/>
      <point x="92" y="46"/>
      <point x="70" y="40" type="curve" smooth="yes"/>
      <point x="8" y="24" type="line"/>
      <point x="8" y="0" type="line"/>
      <point x="290" y="0" type="line"/>
      <point x="290" y="24" type="line"/>
      <point x="228" y="40" type="line" smooth="yes"/>
      <point x="206" y="46"/>
      <point x="194" y="58"/>
      <point x="194" y="90" type="curve"/>
    </contour>
    <contour>
      <point x="315" y="323" type="line"/>
      <point x="519" y="0" type="line"/>
      <point x="711" y="0" type="line"/>
      <point x="711" y="24" type="line"/>
      <point x="649" y="40" type="line" smooth="yes"/>
      <point x="627" y="46"/>
      <point x="616" y="61"/>
      <point x="595" y="90" type="curve" smooth="yes"/>
      <point x="385" y="379" type="line"/>
      <point x="555" y="582" type="line" smooth="yes"/>
      <point x="599" y="635"/>
      <point x="634" y="637"/>
      <point x="671" y="648" type="curve"/>
      <point x="671" y="672" type="line"/>
      <point x="399" y="672" type="line"/>
      <point x="399" y="648" type="line"/>
      <point x="461" y="632" type="line" smooth="yes"/>
      <point x="483" y="626"/>
      <point x="505" y="608"/>
      <point x="485" y="582" type="curve" smooth="yes"/>
      <point x="315" y="369" type="line"/>
      <point x="188" y="369" type="line"/>
      <point x="188" y="323" type="line"/>
    </contour>
  </outline>
</glyph>
<glyph name="L" format="1">
  <advance width="600"/>
  <unicode hex="004C"/>
  <outline>
    <contour>
      <point x="568" y="0" type="line"/>
      <point x="600" y="232" type="line"/>
      <point x="569" y="232" type="line"/>
      <point x="487" y="91" type="line" smooth="yes"/>
      <point x="472" y="66"/>
      <point x="464" y="48"/>
      <point x="407" y="48" type="curve" smooth="yes"/>
      <point x="252" y="47" type="line" smooth="yes"/>
      <point x="229" y="47"/>
      <point x="218" y="64"/>
      <point x="218" y="96" type="curve"/>
      <point x="218" y="582" type="line"/>
      <point x="218" y="614"/>
      <point x="230" y="626"/>
      <point x="252" y="632" type="curve" smooth="yes"/>
      <point x="314" y="648" type="line"/>
      <point x="314" y="672" type="line"/>
      <point x="32" y="672" type="line"/>
      <point x="32" y="648" type="line"/>
      <point x="94" y="632" type="line" smooth="yes"/>
      <point x="116" y="626"/>
      <point x="128" y="614"/>
      <point x="128" y="582" type="curve" smooth="yes"/>
      <point x="128" y="90" type="line" smooth="yes"/>
      <point x="128" y="58"/>
      <point x="116" y="46"/>
      <point x="94" y="40" type="curve" smooth="yes"/>
      <point x="32" y="24" type="line"/>
      <point x="32" y="0" type="line"/>
    </contour>
  </outline>
</glyph>
<glyph name="N" format="1">
  <advance width="600"/>
  <unicode hex="004E"/>
  <outline>
    <contour>
      <point x="781" y="648" type="line"/>
      <point x="781" y="672" type="line"/>
      <point x="499" y="672" type="line"/>
      <point x="499" y="648" type="line"/>
      <point x="561" y="632" type="line" smooth="yes"/>
      <point x="583" y="626"/>
      <point x="595" y="614"/>
      <point x="595" y="582" type="curve" smooth="yes"/>
      <point x="595" y="369" type="line"/>
      <point x="218" y="369" type="line"/>
      <point x="218" y="582" type="line" smooth="yes"/>
      <point x="218" y="614"/>
      <point x="230" y="626"/>
      <point x="252" y="632" type="curve" smooth="yes"/>
      <point x="314" y="648" type="line"/>
      <point x="314" y="672" type="line"/>
      <point x="32" y="672" type="line"/>
      <point x="32" y="648" type="line"/>
      <point x="94" y="632" type="line" smooth="yes"/>
      <point x="116" y="626"/>
      <point x="128" y="614"/>
      <point x="128" y="582" type="curve" smooth="yes"/>
      <point x="128" y="90" type="line" smooth="yes"/>
      <point x="128" y="58"/>
      <point x="116" y="46"/>
      <point x="94" y="40" type="curve" smooth="yes"/>
      <point x="32" y="24" type="line"/>
      <point x="32" y="0" type="line"/>
      <point x="314" y="0" type="line"/>
      <point x="314" y="24" type="line"/>
      <point x="252" y="40" type="line" smooth="yes"/>
      <point x="230" y="46"/>
      <point x="218" y="58"/>
      <point x="218" y="90" type="curve" smooth="yes"/>
      <point x="218" y="323" type="line"/>
      <point x="595" y="323" type="line"/>
      <point x="595" y="90" type="line" smooth="yes"/>
      <point x="595" y="58"/>
      <point x="583" y="46"/>
      <point x="561" y="40" type="curve" smooth="yes"/>
      <point x="499" y="24" type="line"/>
      <point x="499" y="0" type="line"/>
      <point x="781" y="0" type="line"/>
      <point x="781" y="24" type="line"/>
      <point x="719" y="40" type="line" smooth="yes"/>
      <point x="697" y="46"/>
      <point x="685" y="58"/>
      <point x="685" y="90" type="curve" smooth="yes"/>
      <point x="685" y="582" type="line" smooth="yes"/>
      <point x="685" y="614"/>
      <point x="697" y="626"/>
      <point x="719" y="632" type="curve" smooth="yes"/>
    </contour>
  </outline>
</glyph>
<glyph name="P" format="1">
  <advance width="600"/>
  <unicode hex="0050"/>
  <outline>
    <contour>
      <point x="32" y="672" type="line"/>
      <point x="32" y="648" type="line"/>
      <point x="94" y="632" type="line" smooth="yes"/>
      <point x="116" y="626"/>
      <point x="128" y="614"/>
      <point x="128" y="582" type="curve" smooth="yes"/>
      <point x="128" y="90" type="line" smooth="yes"/>
      <point x="128" y="58"/>
      <point x="116" y="46"/>
      <point x="94" y="40" type="curve" smooth="yes"/>
      <point x="32" y="24" type="line"/>
      <point x="32" y="0" type="line"/>
      <point x="314" y="0" type="line"/>
      <point x="314" y="24" type="line"/>
      <point x="252" y="40" type="line" smooth="yes"/>
      <point x="230" y="46"/>
      <point x="218" y="58"/>
      <point x="218" y="90" type="curve" smooth="yes"/>
      <point x="218" y="280" type="line"/>
      <point x="327" y="280" type="line" smooth="yes"/>
      <point x="431" y="280"/>
      <point x="571" y="334"/>
      <point x="571" y="482" type="curve" smooth="yes"/>
      <point x="571" y="630"/>
      <point x="443" y="672"/>
      <point x="338" y="672" type="curve" smooth="yes"/>
    </contour>
    <contour>
      <point x="218" y="326" type="line"/>
      <point x="218" y="576" type="line" smooth="yes"/>
      <point x="218" y="608"/>
      <point x="229" y="625"/>
      <point x="252" y="625" type="curve" smooth="yes"/>
      <point x="337" y="624" type="line" smooth="yes"/>
      <point x="388" y="623"/>
      <point x="477" y="611"/>
      <point x="477" y="482" type="curve" smooth="yes"/>
      <point x="477" y="352"/>
      <point x="378" y="326"/>
      <point x="327" y="326" type="curve" smooth="yes"/>
    </contour>
  </outline>
</glyph>
<glyph name="Q" format="1">
  <advance width="600"/>
  <unicode hex="0051"/>
  <outline>
    <contour>
      <point x="98" y="692"/>
      <point x="-43" y="547"/>
      <point x="-43" y="336" type="curve"/>
      <point x="-43" y="106"/>
      <point x="120" y="-20"/>
      <point x="310" y="-20" type="curve"/>
      <point x="497" y="-20"/>
      <point x="663" y="105"/>
      <point x="663" y="336" type="curve"/>
      <point x="663" y="543"/>
      <point x="523" y="692"/>
      <point x="310" y="692" type="curve"/>
    </contour>
    <contour>
      <point x="459" y="648"/>
      <point x="548" y="522"/>
      <point x="548" y="336" type="curve"/>
      <point x="548" y="150"/>
      <point x="459" y="23"/>
      <point x="310" y="23" type="curve"/>
      <point x="180" y="23"/>
      <point x="71" y="150"/>
      <point x="71" y="336" type="curve"/>
      <point x="71" y="524"/>
      <point x="160" y="648"/>
      <point x="310" y="648" type="curve"/>
    </contour>
    <contour>
      <point x="912" y="-170" type="line"/>
      <point x="690" y="-185"/>
      <point x="550" y="8"/>
      <point x="287" y="8" type="curve"/>
      <point x="204" y="8"/>
      <point x="178" y="-13"/>
      <point x="147" y="-33" type="curve"/>
      <point x="182" y="-73" type="line"/>
      <point x="194" y="-64" type="line"/>
      <point x="235" y="-36"/>
      <point x="264" y="-31"/>
      <point x="299" y="-33" type="curve" smooth="yes"/>
      <point x="366" y="-36"/>
      <point x="586" y="-242"/>
      <point x="721" y="-246" type="curve" smooth="yes"/>
      <point x="816" y="-249"/>
      <point x="876" y="-227"/>
      <point x="932" y="-203" type="curve"/>
      <point x="932" y="-165" type="line"/>
    </contour>
  </outline>
</glyph>
<glyph name="T" format="1">
  <advance width="666"/>
  <unicode hex="0054"/>
  <outline>
    <contour>
      <point x="27" y="672" type="line"/>
      <point x="16" y="480" type="line"/>
      <point x="50" y="480" type="line"/>
      <point x="91" y="583" type="line" smooth="yes"/>
      <point x="103" y="613"/>
      <point x="134" y="626"/>
      <point x="171" y="626" type="curve" smooth="yes"/>
      <point x="253" y="626" type="line" smooth="yes"/>
      <point x="276" y="626"/>
      <point x="287" y="608"/>
      <point x="287" y="576" type="curve" smooth="yes"/>
      <point x="287" y="90" type="line" smooth="yes"/>
      <point x="287" y="58"/>
      <point x="275" y="46"/>
      <point x="253" y="40" type="curve" smooth="yes"/>
      <point x="191" y="24" type="line"/>
      <point x="191" y="0" type="line"/>
      <point x="475" y="0" type="line"/>
      <point x="475" y="24" type="line"/>
      <point x="413" y="40" type="line" smooth="yes"/>
      <point x="391" y="46"/>
      <point x="379" y="58"/>
      <point x="379" y="90" type="curve" smooth="yes"/>
      <point x="379" y="576" type="line" smooth="yes"/>
      <point x="379" y="608"/>
      <point x="390" y="626"/>
      <point x="413" y="626" type="curve" smooth="yes"/>
      <point x="495" y="626" type="line" smooth="yes"/>
      <point x="532" y="626"/>
      <point x="563" y="613"/>
      <point x="575" y="583" type="curve" smooth="yes"/>
      <point x="616" y="480" type="line"/>
      <point x="650" y="480" type="line"/>
      <point x="639" y="672" type="line"/>
    </contour>
  </outline>
</glyph>
<glyph name="a" format="1">
  <advance width="476"/>
  <unicode hex="0061"/>
  <outline>
    <contour>
      <point x="198" y="-12"/>
      <point x="257" y="15"/>
      <point x="287" y="66" type="curve"/>
      <point x="287" y="16"/>
      <point x="333" y="-12"/>
      <point x="366" y="-12" type="curve" smooth="yes"/>
      <point x="421" y="-12"/>
      <point x="446" y="13"/>
      <point x="470" y="48" type="curve"/>
      <point x="454" y="64" type="line"/>
      <point x="443" y="52"/>
      <point x="432" y="48"/>
      <point x="414" y="48" type="curve" smooth="yes"/>
      <point x="392" y="48"/>
      <point x="376" y="65"/>
      <point x="376" y="96" type="curve" smooth="yes"/>
      <point x="376" y="347" type="line" smooth="yes"/>
      <point x="376" y="437"/>
      <point x="321" y="491"/>
      <point x="226" y="491" type="curve" smooth="yes"/>
      <point x="112" y="491"/>
      <point x="32" y="428"/>
      <point x="32" y="375" type="curve" smooth="yes"/>
      <point x="32" y="345"/>
      <point x="52" y="315"/>
      <point x="82" y="315" type="curve" smooth="yes"/>
      <point x="112" y="315"/>
      <point x="142" y="335"/>
      <point x="142" y="365" type="curve"/>
      <point x="111" y="408" type="line"/>
      <point x="111" y="437"/>
      <point x="152" y="455"/>
      <point x="182" y="455" type="curve" smooth="yes"/>
      <point x="264" y="455"/>
      <point x="292" y="394"/>
      <point x="292" y="315" type="curve" smooth="yes"/>
      <point x="292" y="270" type="line"/>
      <point x="144" y="270"/>
      <point x="16" y="220"/>
      <point x="16" y="121" type="curve" smooth="yes"/>
      <point x="16" y="46"/>
      <point x="71" y="-12"/>
      <point x="150" y="-12" type="curve" smooth="yes"/>
    </contour>
    <contour>
      <point x="292" y="176" type="line" smooth="yes"/>
      <point x="292" y="94"/>
      <point x="257" y="55"/>
      <point x="192" y="55" type="curve" smooth="yes"/>
      <point x="142" y="55"/>
      <point x="115" y="86"/>
      <point x="115" y="135" type="curve" smooth="yes"/>
      <point x="115" y="198"/>
      <point x="195" y="236"/>
      <point x="292" y="236" type="curve"/>
    </contour>
  </outline>
</glyph>
<glyph name="b" format="1">
  <advance width="555"/>
  <unicode hex="0062"/>
  <outline>
    <contour>
      <point x="241" y="491"/>
      <point x="180" y="438"/>
      <point x="168" y="403" type="curve"/>
      <point x="168" y="712" type="line" smooth="yes"/>
      <point x="168" y="740"/>
      <point x="150" y="746"/>
      <point x="122" y="736" type="curve" smooth="yes"/>
      <point x="8" y="696" type="line"/>
      <point x="8" y="672" type="line"/>
      <point x="50" y="658" type="line" smooth="yes"/>
      <point x="73" y="650"/>
      <point x="84" y="642"/>
      <point x="84" y="616" type="curve" smooth="yes"/>
      <point x="84" y="24" type="line"/>
      <point x="114" y="0" type="line"/>
      <point x="164" y="33" type="line"/>
      <point x="196" y="6"/>
      <point x="238" y="-9"/>
      <point x="290" y="-9" type="curve" smooth="yes"/>
      <point x="424" y="-9"/>
      <point x="523" y="93"/>
      <point x="523" y="241" type="curve" smooth="yes"/>
      <point x="523" y="389"/>
      <point x="425" y="491"/>
      <point x="290" y="491" type="curve" smooth="yes"/>
    </contour>
    <contour>
      <point x="210" y="24"/>
      <point x="168" y="112"/>
      <point x="168" y="241" type="curve" smooth="yes"/>
      <point x="168" y="371"/>
      <point x="209" y="448"/>
      <point x="290" y="448" type="curve" smooth="yes"/>
      <point x="371" y="448"/>
      <point x="429" y="370"/>
      <point x="429" y="241" type="curve" smooth="yes"/>
      <point x="429" y="111"/>
      <point x="371" y="24"/>
      <point x="290" y="24" type="curve" smooth="yes"/>
    </contour>
  </outline>
</glyph>
<glyph name="e" format="1">
  <advance width="486"/>
  <unicode hex="0065"/>
  <outline>
    <contour>
      <point x="114" y="278" type="line"/>
      <point x="448" y="278" type="line"/>
      <point x="448" y="426"/>
      <point x="356" y="491"/>
      <point x="261" y="491" type="curve" smooth="yes"/>
      <point x="126" y="491"/>
      <point x="32" y="390"/>
      <point x="32" y="241" type="curve" smooth="yes"/>
      <point x="32" y="93"/>
      <point x="127" y="-5"/>
      <point x="261" y="-5" type="curve" smooth="yes"/>
      <point x="342" y="-5"/>
      <point x="410" y="38"/>
      <point x="442" y="101" type="curve"/>
      <point x="422" y="124" type="line"/>
      <point x="392" y="89"/>
      <point x="349" y="53"/>
      <point x="299" y="53" type="curve" smooth="yes"/>
      <point x="224" y="53"/>
      <point x="126" y="121"/>
      <point x="126" y="241" type="curve" smooth="yes"/>
      <point x="126" y="371"/>
      <point x="159" y="453"/>
      <point x="250" y="453" type="curve" smooth="yes"/>
      <point x="278" y="453"/>
      <point x="342" y="443"/>
      <point x="342" y="314" type="curve"/>
      <point x="114" y="314" type="line"/>
    </contour>
  </outline>
</glyph>
<glyph name="h" format="1">
  <advance width="584"/>
  <unicode hex="0068"/>
  <outline>
    <contour>
      <point x="260" y="24" type="line"/>
      <point x="218" y="40" type="line" smooth="yes"/>
      <point x="196" y="48"/>
      <point x="184" y="58"/>
      <point x="184" y="90" type="curve" smooth="yes"/>
      <point x="184" y="312" type="line" smooth="yes"/>
      <point x="184" y="384"/>
      <point x="232" y="424"/>
      <point x="296" y="424" type="curve" smooth="yes"/>
      <point x="344" y="424"/>
      <point x="400" y="402"/>
      <point x="400" y="320" type="curve" smooth="yes"/>
      <point x="400" y="90" type="line" smooth="yes"/>
      <point x="400" y="58"/>
      <point x="388" y="48"/>
      <point x="366" y="40" type="curve" smooth="yes"/>
      <point x="324" y="24" type="line"/>
      <point x="324" y="0" type="line"/>
      <point x="560" y="0" type="line"/>
      <point x="560" y="24" type="line"/>
      <point x="518" y="40" type="line" smooth="yes"/>
      <point x="496" y="48"/>
      <point x="484" y="58"/>
      <point x="484" y="90" type="curve" smooth="yes"/>
      <point x="484" y="344" type="line" smooth="yes"/>
      <point x="484" y="404"/>
      <point x="438" y="488"/>
      <point x="328" y="488" type="curve" smooth="yes"/>
      <point x="260" y="488"/>
      <point x="216" y="448"/>
      <point x="176" y="400" type="curve"/>
      <point x="168" y="400" type="line"/>
      <point x="176" y="424"/>
      <point x="184" y="472"/>
      <point x="184" y="523" type="curve" smooth="yes"/>
      <point x="184" y="712" type="line" smooth="yes"/>
      <point x="184" y="740"/>
      <point x="164" y="746"/>
      <point x="136" y="736" type="curve" smooth="yes"/>
      <point x="24" y="696" type="line"/>
      <point x="24" y="672" type="line"/>
      <point x="66" y="658" type="line" smooth="yes"/>
      <point x="89" y="650"/>
      <point x="100" y="642"/>
      <point x="100" y="616" type="curve" smooth="yes"/>
      <point x="100" y="90" type="line" smooth="yes"/>
      <point x="100" y="58"/>
      <point x="88" y="48"/>
      <point x="66" y="40" type="curve" smooth="yes"/>
      <point x="24" y="24" type="line"/>
      <point x="24" y="0" type="line"/>
      <point x="260" y="0" type="line"/>
    </contour>
  </outline>
</glyph>
<glyph name="i" format="1">
  <advance width="302"/>
  <unicode hex="0069"/>
  <outline>
    <contour>
      <point x="270" y="0" type="line"/>
      <point x="270" y="24" type="line"/>
      <point x="228" y="40" type="line" smooth="yes"/>
      <point x="206" y="48"/>
      <point x="194" y="58"/>
      <point x="194" y="90" type="curve" smooth="yes"/>
      <point x="194" y="464" type="line" smooth="yes"/>
      <point x="194" y="492"/>
      <point x="176" y="498"/>
      <point x="148" y="488" type="curve" smooth="yes"/>
      <point x="34" y="448" type="line"/>
      <point x="34" y="424" type="line"/>
      <point x="76" y="410" type="line" smooth="yes"/>
      <point x="99" y="402"/>
      <point x="110" y="394"/>
      <point x="110" y="368" type="curve" smooth="yes"/>
      <point x="110" y="90" type="line" smooth="yes"/>
      <point x="110" y="58"/>
      <point x="98" y="48"/>
      <point x="76" y="40" type="curve" smooth="yes"/>
      <point x="34" y="24" type="line"/>
      <point x="34" y="0" type="line"/>
    </contour>
    <contour>
      <point x="146" y="586" type="curve" smooth="yes"/>
      <point x="182" y="586"/>
      <point x="212" y="617"/>
      <point x="212" y="653" type="curve" smooth="yes"/>
      <point x="212" y="690"/>
      <point x="182" y="720"/>
      <point x="146" y="720" type="curve" smooth="yes"/>
      <point x="109" y="720"/>
      <point x="78" y="690"/>
      <point x="78" y="653" type="curve" smooth="yes"/>
      <point x="78" y="617"/>
      <point x="109" y="586"/>
    </contour>
  </outline>
</glyph>
<glyph name="j" format="1">
  <advance width="250"/>
  <unicode hex="006A"/>
  <outline>
    <contour>
      <point x="128" y="584" type="curve" smooth="yes"/>
      <point x="164" y="584"/>
      <point x="194" y="615"/>
      <point x="194" y="651" type="curve" smooth="yes"/>
      <point x="194" y="688"/>
      <point x="164" y="718"/>
      <point x="128" y="718" type="curve" smooth="yes"/>
      <point x="91" y="718"/>
      <point x="60" y="688"/>
      <point x="60" y="651" type="curve" smooth="yes"/>
      <point x="60" y="615"/>
      <point x="91" y="584"/>
    </contour>
    <contour>
      <point x="176" y="-56" type="curve" smooth="yes"/>
      <point x="176" y="464" type="line" smooth="yes"/>
      <point x="176" y="492"/>
      <point x="158" y="498"/>
      <point x="130" y="488" type="curve" smooth="yes"/>
      <point x="16" y="448" type="line"/>
      <point x="16" y="424" type="line"/>
      <point x="58" y="410" type="line" smooth="yes"/>
      <point x="81" y="402"/>
      <point x="92" y="394"/>
      <point x="92" y="368" type="curve" smooth="yes"/>
      <point x="92" y="-80" type="line" smooth="yes"/>
      <point x="92" y="-120"/>
      <point x="86" y="-140"/>
      <point x="70" y="-156" type="curve" smooth="yes"/>
      <point x="22" y="-204" type="line"/>
      <point x="42" y="-224" type="line"/>
      <point x="104" y="-192"/>
      <point x="176" y="-152"/>
    </contour>
  </outline>
</glyph>
<glyph name="k" format="1">
  <advance width="276"/>
  <unicode hex="006B"/>
  <outline>
    <contour>
      <point x="506" y="49"/>
      <point x="479" y="69"/>
      <point x="464" y="90" type="curve" smooth="yes"/>
      <point x="318" y="295" type="line"/>
      <point x="414" y="392" type="line" smooth="yes"/>
      <point x="440" y="418"/>
      <point x="485" y="441"/>
      <point x="508" y="447" type="curve" smooth="yes"/>
      <point x="550" y="458" type="line"/>
      <point x="550" y="482" type="line"/>
      <point x="314" y="482" type="line"/>
      <point x="314" y="458" type="line"/>
      <point x="356" y="445" type="line" smooth="yes"/>
      <point x="378" y="438"/>
      <point x="390" y="411"/>
      <point x="370" y="392" type="curve" smooth="yes"/>
      <point x="264" y="295" type="line"/>
      <point x="184" y="295" type="line"/>
      <point x="184" y="712" type="line" smooth="yes"/>
      <point x="184" y="740"/>
      <point x="166" y="746"/>
      <point x="138" y="736" type="curve" smooth="yes"/>
      <point x="24" y="696" type="line"/>
      <point x="24" y="672" type="line"/>
      <point x="66" y="658" type="line" smooth="yes"/>
      <point x="89" y="650"/>
      <point x="100" y="642"/>
      <point x="100" y="616" type="curve" smooth="yes"/>
      <point x="100" y="90" type="line" smooth="yes"/>
      <point x="100" y="58"/>
      <point x="88" y="48"/>
      <point x="66" y="40" type="curve" smooth="yes"/>
      <point x="24" y="24" type="line"/>
      <point x="24" y="0" type="line"/>
      <point x="260" y="0" type="line"/>
      <point x="260" y="24" type="line"/>
      <point x="218" y="40" type="line" smooth="yes"/>
      <point x="196" y="48"/>
      <point x="184" y="58"/>
      <point x="184" y="90" type="curve" smooth="yes"/>
      <point x="184" y="254" type="line"/>
      <point x="242" y="254" type="line"/>
      <point x="410" y="0" type="line"/>
      <point x="566" y="0" type="line"/>
      <point x="566" y="24" type="line"/>
      <point x="528" y="40" type="line" smooth="yes"/>
    </contour>
  </outline>
</glyph>
<glyph name="l" format="1">
  <advance width="276"/>
  <unicode hex="006C"/>
  <outline>
    <contour>
      <point x="260" y="0" type="line"/>
      <point x="260" y="24" type="line"/>
      <point x="218" y="40" type="line" smooth="yes"/>
      <point x="196" y="48"/>
      <point x="184" y="58"/>
      <point x="184" y="90" type="curve"/>
      <point x="184" y="712" type="line" smooth="yes"/>
      <point x="184" y="740"/>
      <point x="166" y="746"/>
      <point x="138" y="736" type="curve" smooth="yes"/>
      <point x="24" y="696" type="line"/>
      <point x="24" y="672" type="line"/>
      <point x="66" y="658" type="line" smooth="yes"/>
      <point x="89" y="650"/>
      <point x="100" y="642"/>
      <point x="100" y="616" type="curve" smooth="yes"/>
      <point x="100" y="90" type="line"/>
      <point x="100" y="58"/>
      <point x="88" y="48"/>
      <point x="66" y="40" type="curve" smooth="yes"/>
      <point x="24" y="24" type="line"/>
      <point x="24" y="0" type="line"/>
    </contour>
  </outline>
</glyph>
<glyph name="n" format="1">
  <advance width="600"/>
  <unicode hex="006E"/>
  <outline>
    <contour>
      <point x="268" y="24" type="line"/>
      <point x="226" y="40" type="line" smooth="yes"/>
      <point x="204" y="48"/>
      <point x="192" y="58"/>
      <point x="192" y="90" type="curve"/>
      <point x="192" y="312" type="line" smooth="yes"/>
      <point x="192" y="384"/>
      <point x="237" y="424"/>
      <point x="302" y="424" type="curve" smooth="yes"/>
      <point x="344" y="424"/>
      <point x="408" y="402"/>
      <point x="408" y="320" type="curve" smooth="yes"/>
      <point x="408" y="90" type="line"/>
      <point x="408" y="58"/>
      <point x="396" y="48"/>
      <point x="374" y="40" type="curve" smooth="yes"/>
      <point x="332" y="24" type="line"/>
      <point x="332" y="0" type="line"/>
      <point x="568" y="0" type="line"/>
      <point x="568" y="24" type="line"/>
      <point x="526" y="40" type="line" smooth="yes"/>
      <point x="504" y="48"/>
      <point x="492" y="58"/>
      <point x="492" y="90" type="curve"/>
      <point x="492" y="344" type="line" smooth="yes"/>
      <point x="492" y="404"/>
      <point x="443" y="487"/>
      <point x="333" y="487" type="curve" smooth="yes"/>
      <point x="265" y="487"/>
      <point x="219" y="438"/>
      <point x="184" y="408" type="curve"/>
      <point x="176" y="408" type="line"/>
      <point x="184" y="424"/>
      <point x="192" y="448"/>
      <point x="192" y="472" type="curve" smooth="yes"/>
      <point x="192" y="500"/>
      <point x="174" y="506"/>
      <point x="146" y="496" type="curve" smooth="yes"/>
      <point x="32" y="456" type="line"/>
      <point x="32" y="432" type="line"/>
      <point x="74" y="418" type="line" smooth="yes"/>
      <point x="97" y="410"/>
      <point x="108" y="402"/>
      <point x="108" y="376" type="curve" smooth="yes"/>
      <point x="108" y="90" type="line"/>
      <point x="108" y="58"/>
      <point x="96" y="48"/>
      <point x="74" y="40" type="curve" smooth="yes"/>
      <point x="32" y="24" type="line"/>
      <point x="32" y="0" type="line"/>
      <point x="268" y="0" type="line"/>
    </contour>
  </outline>
</glyph>
<glyph name="o" format="1">
  <advance width="513"/>
  <unicode hex="006F"/>
  <outline>
    <contour>
      <point x="256" y="491" type="curve" smooth="yes"/>
      <point x="121" y="491"/>
      <point x="24" y="390"/>
      <point x="24" y="241" type="curve" smooth="yes"/>
      <point x="24" y="93"/>
      <point x="122" y="-9"/>
      <point x="256" y="-9" type="curve" smooth="yes"/>
      <point x="390" y="-9"/>
      <point x="489" y="93"/>
      <point x="489" y="241" type="curve" smooth="yes"/>
      <point x="489" y="389"/>
      <point x="391" y="491"/>
    </contour>
    <contour>
      <point x="256" y="448" type="curve" smooth="yes"/>
      <point x="337" y="448"/>
      <point x="395" y="370"/>
      <point x="395" y="241" type="curve" smooth="yes"/>
      <point x="395" y="111"/>
      <point x="337" y="34"/>
      <point x="256" y="34" type="curve" smooth="yes"/>
      <point x="176" y="34"/>
      <point x="118" y="112"/>
      <point x="118" y="241" type="curve" smooth="yes"/>
      <point x="118" y="371"/>
      <point x="175" y="448"/>
    </contour>
  </outline>
</glyph>
<glyph name="q" format="1">
  <advance width="600"/>
  <unicode hex="0071"/>
  <outline>
    <contour>
      <point x="336" y="-9"/>
      <point x="397" y="44"/>
      <point x="409" y="79" type="curve"/>
      <point x="409" y="-230" type="line" smooth="yes"/>
      <point x="409" y="-258"/>
      <point x="427" y="-264"/>
      <point x="455" y="-254" type="curve" smooth="yes"/>
      <point x="569" y="-214" type="line"/>
      <point x="569" y="-190" type="line"/>
      <point x="527" y="-176" type="line" smooth="yes"/>
      <point x="504" y="-168"/>
      <point x="493" y="-160"/>
      <point x="493" y="-134" type="curve" smooth="yes"/>
      <point x="493" y="458" type="line"/>
      <point x="463" y="482" type="line"/>
      <point x="413" y="449" type="line"/>
      <point x="381" y="476"/>
      <point x="339" y="491"/>
      <point x="287" y="491" type="curve" smooth="yes"/>
      <point x="153" y="491"/>
      <point x="54" y="389"/>
      <point x="54" y="241" type="curve" smooth="yes"/>
      <point x="54" y="93"/>
      <point x="152" y="-9"/>
      <point x="287" y="-9" type="curve" smooth="yes"/>
    </contour>
    <contour>
      <point x="367" y="458"/>
      <point x="409" y="370"/>
      <point x="409" y="241" type="curve" smooth="yes"/>
      <point x="409" y="111"/>
      <point x="368" y="34"/>
      <point x="287" y="34" type="curve" smooth="yes"/>
      <point x="206" y="34"/>
      <point x="148" y="112"/>
      <point x="148" y="241" type="curve" smooth="yes"/>
      <point x="148" y="371"/>
      <point x="206" y="458"/>
      <point x="287" y="458" type="curve" smooth="yes"/>
    </contour>
  </outline>
</glyph>
<glyph name="r" format="1">
  <advance width="422"/>
  <unicode hex="0072"/>
  <outline>
    <contour>
      <point x="268" y="24" type="line"/>
      <point x="226" y="40" type="line" smooth="yes"/>
      <point x="204" y="48"/>
      <point x="192" y="58"/>
      <point x="192" y="90" type="curve"/>
      <point x="192" y="302" type="line" smooth="yes"/>
      <point x="192" y="374"/>
      <point x="245" y="415"/>
      <point x="292" y="415" type="curve"/>
      <point x="291" y="387"/>
      <point x="306" y="362"/>
      <point x="348" y="362" type="curve" smooth="yes"/>
      <point x="380" y="362"/>
      <point x="406" y="387"/>
      <point x="406" y="420" type="curve" smooth="yes"/>
      <point x="406" y="441"/>
      <point x="393" y="487"/>
      <point x="333" y="487" type="curve" smooth="yes"/>
      <point x="265" y="487"/>
      <point x="209" y="428"/>
      <point x="184" y="388" type="curve"/>
      <point x="176" y="388" type="line"/>
      <point x="184" y="404"/>
      <point x="192" y="428"/>
      <point x="192" y="472" type="curve" smooth="yes"/>
      <point x="192" y="500"/>
      <point x="174" y="506"/>
      <point x="146" y="496" type="curve" smooth="yes"/>
      <point x="32" y="456" type="line"/>
      <point x="32" y="432" type="line"/>
      <point x="74" y="418" type="line" smooth="yes"/>
      <point x="97" y="410"/>
      <point x="108" y="402"/>
      <point x="108" y="376" type="curve" smooth="yes"/>
      <point x="108" y="90" type="line"/>
      <point x="108" y="58"/>
      <point x="96" y="48"/>
      <point x="74" y="40" type="curve" smooth="yes"/>
      <point x="32" y="24" type="line"/>
      <point x="32" y="0" type="line"/>
      <point x="268" y="0" type="line"/>
    </contour>
  </outline>
</glyph>
<glyph name="s" format="1">
  <advance width="400"/>
  <unicode hex="0073"/>
  <outline>
    <contour>
      <point x="346" y="345" type="line"/>
      <point x="357" y="464" type="line"/>
      <point x="311" y="472"/>
      <point x="279" y="486"/>
      <point x="219" y="487" type="curve"/>
      <point x="159" y="488"/>
      <point x="45" y="442"/>
      <point x="44" y="354" type="curve" smooth="yes"/>
      <point x="43" y="266"/>
      <point x="126" y="230"/>
      <point x="186" y="202" type="curve" smooth="yes"/>
      <point x="246" y="174"/>
      <point x="281" y="154"/>
      <point x="284" y="113" type="curve" smooth="yes"/>
      <point x="287" y="72"/>
      <point x="271" y="26"/>
      <point x="211" y="26" type="curve" smooth="yes"/>
      <point x="151" y="26"/>
      <point x="118" y="55"/>
      <point x="106" y="85" type="curve" smooth="yes"/>
      <point x="80" y="153" type="line"/>
      <point x="48" y="151" type="line"/>
      <point x="47" y="14" type="line"/>
      <point x="94" y="5"/>
      <point x="122" y="-12"/>
      <point x="189" y="-12" type="curve"/>
      <point x="256" y="-12"/>
      <point x="372" y="20"/>
      <point x="375" y="139" type="curve" smooth="yes"/>
      <point x="377" y="218"/>
      <point x="323" y="240"/>
      <point x="242" y="282" type="curve" smooth="yes"/>
      <point x="161" y="324"/>
      <point x="136" y="336"/>
      <point x="135" y="377" type="curve" smooth="yes"/>
      <point x="134" y="418"/>
      <point x="163" y="452"/>
      <point x="229" y="451" type="curve" smooth="yes"/>
      <point x="295" y="450"/>
      <point x="281" y="435"/>
      <point x="289" y="418" type="curve" smooth="yes"/>
      <point x="309" y="345" type="line"/>
    </contour>
  </outline>
</glyph>
<glyph name="t" format="1">
  <advance width="334"/>
  <unicode hex="0074"/>
  <outline>
    <contour>
      <point x="181" y="143" type="line"/>
      <point x="181" y="90"/>
      <point x="179" y="53"/>
      <point x="236" y="50" type="curve"/>
      <point x="293" y="47"/>
      <point x="317" y="63"/>
      <point x="336" y="84" type="curve" smooth="yes"/>
      <point x="353" y="65" type="line"/>
      <point x="330" y="25"/>
      <point x="288" y="-20"/>
      <point x="220" y="-15" type="curve"/>
      <point x="127" y="-13"/>
      <point x="79" y="64"/>
      <point x="81" y="120" type="curve" smooth="yes"/>
      <point x="82" y="413" type="line"/>
      <point x="0" y="413" type="line"/>
      <point x="-1" y="446" type="line"/>
      <point x="54" y="459"/>
      <point x="135" y="506"/>
      <point x="140" y="595" type="curve"/>
      <point x="185" y="598" type="line"/>
      <point x="183" y="459" type="line"/>
      <point x="335" y="460" type="line"/>
      <point x="325" y="404" type="line"/>
      <point x="181" y="415" type="line"/>
    </contour>
  </outline>
</glyph>
<glyph name="u" format="1">
  <advance width="569"/>
  <unicode hex="0075"/>
  <outline>
    <contour>
      <point x="332" y="477" type="line"/>
      <point x="374" y="461" type="line" smooth="yes"/>
      <point x="396" y="453"/>
      <point x="408" y="443"/>
      <point x="408" y="411" type="curve"/>
      <point x="408" y="189" type="line" smooth="yes"/>
      <point x="408" y="117"/>
      <point x="363" y="77"/>
      <point x="298" y="77" type="curve" smooth="yes"/>
      <point x="256" y="77"/>
      <point x="192" y="99"/>
      <point x="192" y="181" type="curve" smooth="yes"/>
      <point x="192" y="411" type="line"/>
      <point x="192" y="443"/>
      <point x="204" y="453"/>
      <point x="226" y="461" type="curve" smooth="yes"/>
      <point x="268" y="477" type="line"/>
      <point x="268" y="501" type="line"/>
      <point x="32" y="501" type="line"/>
      <point x="32" y="477" type="line"/>
      <point x="74" y="461" type="line" smooth="yes"/>
      <point x="96" y="453"/>
      <point x="108" y="443"/>
      <point x="108" y="411" type="curve"/>
      <point x="108" y="157" type="line" smooth="yes"/>
      <point x="108" y="97"/>
      <point x="157" y="14"/>
      <point x="267" y="14" type="curve" smooth="yes"/>
      <point x="335" y="14"/>
      <point x="381" y="63"/>
      <point x="416" y="93" type="curve"/>
      <point x="424" y="93" type="line"/>
      <point x="416" y="77"/>
      <point x="408" y="53"/>
      <point x="408" y="29" type="curve" smooth="yes"/>
      <point x="408" y="1"/>
      <point x="426" y="-5"/>
      <point x="454" y="5" type="curve" smooth="yes"/>
      <point x="568" y="45" type="line"/>
      <point x="568" y="69" type="line"/>
      <point x="526" y="83" type="line" smooth="yes"/>
      <point x="503" y="91"/>
      <point x="492" y="99"/>
      <point x="492" y="125" type="curve" smooth="yes"/>
      <point x="492" y="411" type="line"/>
      <point x="492" y="443"/>
      <point x="504" y="453"/>
      <point x="526" y="461" type="curve" smooth="yes"/>
      <point x="568" y="477" type="line"/>
      <point x="568" y="501" type="line"/>
      <point x="332" y="501" type="line"/>
    </contour>
  </outline>
</glyph>
<glyph name="v" format="1">
  <advance width="494"/>
  <unicode hex="0076"/>
  <outline>
    <contour>
      <point x="332" y="456" type="line"/>
      <point x="374" y="440" type="line" smooth="yes"/>
      <point x="396" y="432"/>
      <point x="419" y="422"/>
      <point x="408" y="390" type="curve"/>
      <point x="262" y="44" type="line"/>
      <point x="294" y="66" type="line"/>
      <point x="152" y="390" type="line"/>
      <point x="138" y="422"/>
      <point x="164" y="432"/>
      <point x="186" y="440" type="curve" smooth="yes"/>
      <point x="228" y="456" type="line"/>
      <point x="228" y="480" type="line"/>
      <point x="-8" y="480" type="line"/>
      <point x="-8" y="456" type="line"/>
      <point x="34" y="440" type="line" smooth="yes"/>
      <point x="56" y="432"/>
      <point x="59" y="419"/>
      <point x="68" y="390" type="curve"/>
      <point x="225" y="0" type="line"/>
      <point x="282" y="0" type="line"/>
      <point x="447" y="390" type="line"/>
      <point x="460" y="416"/>
      <point x="464" y="432"/>
      <point x="486" y="440" type="curve" smooth="yes"/>
      <point x="528" y="456" type="line"/>
      <point x="528" y="480" type="line"/>
      <point x="332" y="480" type="line"/>
    </contour>
  </outline>
</glyph>
<glyph name="z" format="1">
  <advance width="468"/>
  <unicode hex="007A"/>
  <outline>
    <contour>
      <point x="456" y="167" type="line"/>
      <point x="442" y="1" type="line"/>
      <point x="11" y="3" type="line"/>
      <point x="13" y="35" type="line"/>
      <point x="307" y="443" type="line"/>
      <point x="146" y="440" type="line"/>
      <point x="101" y="440"/>
      <point x="68" y="388"/>
      <point x="71" y="327" type="curve"/>
      <point x="33" y="327" type="line"/>
      <point x="34" y="481" type="line"/>
      <point x="441" y="479" type="line"/>
      <point x="438" y="450" type="line"/>
      <point x="141" y="41" type="line"/>
      <point x="353" y="44" type="line"/>
      <point x="400" y="44"/>
      <point x="423" y="106"/>
      <point x="422" y="170" type="curve"/>
    </contour>
  </outline>
</glyph>
